<?xml version="1.0" standalone="no"?>
<!DOCTYPE svg PUBLIC "-//W3C//DTD SVG 20010904//EN"
 "http://www.w3.org/TR/2001/REC-SVG-20010904/DTD/svg10.dtd">
<svg version="1.0" xmlns="http://www.w3.org/2000/svg"
 width="1165.000000pt" height="1165.000000pt" viewBox="0 0 1165.000000 1165.000000"
 preserveAspectRatio="xMidYMid meet">
<metadata>
Created by potrace 1.14, written by Peter Selinger 2001-2017
</metadata>
<g transform="translate(0.000000,1165.000000) scale(0.100000,-0.100000)"
fill="#000000" stroke="none">
<path d="M5822 9878 c-34 -127 -36 -113 34 -398 36 -146 67 -272 69 -280 17
-76 75 -302 79 -308 2 -4 7 -23 10 -43 3 -20 17 -83 32 -140 14 -57 28 -111
29 -119 3 -14 132 -535 229 -930 25 -101 46 -185 46 -186 0 -1 -12 -4 -27 -7
-16 -4 -62 -14 -103 -23 -41 -8 -84 -18 -95 -20 -11 -2 -191 -42 -400 -90
-209 -47 -391 -87 -405 -90 -34 -7 -507 -115 -716 -163 -51 -12 -101 -24 -113
-26 -27 -6 -32 -7 -191 -45 -74 -17 -173 -40 -220 -50 -47 -11 -173 -40 -280
-65 -107 -26 -206 -48 -220 -51 -14 -2 -31 -7 -39 -10 -8 -2 -55 -14 -105 -25
-119 -27 -108 -24 -211 -49 -49 -12 -97 -23 -105 -25 -8 -2 -42 -11 -75 -19
-33 -9 -69 -17 -80 -19 -11 -2 -63 -14 -116 -27 l-96 -23 -79 56 c-44 31 -124
88 -179 128 l-100 72 -61 181 c-34 100 -101 294 -149 431 -47 138 -106 306
-129 375 l-43 125 -102 3 c-55 1 -101 -1 -102 -5 0 -4 -2 -17 -4 -28 -2 -11
-7 -56 -10 -101 -3 -44 -7 -89 -9 -100 -2 -10 -7 -57 -11 -104 -4 -47 -8 -98
-10 -115 -2 -16 -7 -66 -11 -110 -3 -44 -8 -82 -10 -83 -4 -6 -64 31 -64 40 0
4 -4 8 -10 8 -5 0 -71 44 -147 99 -133 95 -492 350 -523 371 -70 49 -257 181
-265 187 -16 14 -408 289 -430 303 -18 10 -37 2 -160 -71 -77 -45 -142 -84
-144 -86 -4 -3 63 -120 692 -1212 368 -639 394 -687 385 -715 -12 -43 -11
-153 2 -228 28 -155 127 -386 229 -537 l44 -64 -21 -41 c-29 -56 -94 -175
-146 -266 -24 -41 -60 -106 -81 -145 -21 -38 -126 -227 -233 -420 -107 -192
-206 -370 -219 -395 -14 -25 -64 -114 -111 -198 -47 -85 -81 -157 -76 -160 10
-8 11 -11 28 -102 l11 -65 35 1 c167 7 332 22 341 32 13 15 207 241 249 291
25 30 50 59 55 65 13 14 127 147 186 217 38 45 326 381 402 469 12 14 60 70
107 125 47 55 89 105 95 111 10 11 29 34 170 199 38 44 71 83 75 88 3 4 105
-18 226 -49 120 -30 237 -55 259 -54 79 3 91 2 175 -13 47 -9 103 -19 125 -22
23 -3 50 -7 60 -9 11 -2 43 -7 70 -10 28 -4 61 -9 75 -11 14 -2 48 -6 75 -10
28 -3 61 -8 75 -10 24 -3 97 -11 185 -20 325 -33 655 -49 1045 -48 229 0 577
9 670 18 19 2 82 6 140 10 58 3 121 8 140 10 19 2 73 6 119 10 46 4 91 8 100
10 9 1 48 6 86 9 39 4 81 9 95 11 14 2 52 6 85 10 33 3 90 10 126 15 37 5 91
12 120 16 30 3 59 9 64 12 6 3 3 -3 -5 -14 -29 -37 -60 -79 -68 -89 -4 -5
-122 -163 -262 -350 -140 -187 -257 -342 -260 -345 -3 -3 -23 -30 -45 -60 -22
-30 -42 -57 -45 -60 -3 -3 -46 -59 -95 -125 -50 -66 -95 -127 -102 -135 -7 -8
-179 -238 -384 -510 -662 -881 -861 -1144 -919 -1216 -68 -84 -86 -114 -72
-123 5 -3 13 -51 16 -106 4 -55 10 -103 14 -106 4 -4 88 -32 187 -63 99 -32
211 -68 248 -81 l68 -23 29 25 c16 13 58 52 94 86 99 96 423 406 481 462 29
28 135 129 235 225 101 96 208 199 239 229 31 29 108 103 172 165 63 61 200
192 304 291 104 99 245 235 314 301 69 67 151 146 183 175 31 30 136 131 233
224 98 94 203 195 235 225 63 59 374 357 475 455 129 124 442 424 486 466 26
24 136 130 244 234 109 105 202 193 208 197 14 8 15 7 -55 52 -31 20 -59 39
-62 44 -3 5 30 18 72 31 383 111 1031 335 1287 446 17 7 102 43 190 81 637
273 1130 602 1428 952 57 66 156 221 198 308 46 95 53 114 38 114 -5 0 -9 5
-9 12 0 24 -94 205 -144 277 -163 238 -426 406 -781 499 -55 14 -122 26 -150
26 -43 1 -58 7 -108 46 -131 101 -197 141 -296 181 -95 37 -109 40 -165 35
-33 -4 -68 -9 -76 -11 -8 -2 -33 -6 -55 -10 -42 -6 -147 -24 -330 -56 -33 -6
-71 -13 -85 -15 -14 -2 -47 -9 -75 -15 -27 -5 -66 -12 -85 -15 -19 -3 -75 -14
-125 -24 -49 -11 -101 -21 -115 -24 -80 -14 -206 -42 -415 -92 -11 -3 -31 -7
-45 -10 -14 -3 -50 -12 -80 -20 -30 -8 -64 -17 -75 -19 -42 -10 -284 -78 -365
-102 -279 -86 -518 -172 -678 -244 -53 -24 -64 -24 -33 0 l24 19 -75 113
c-300 454 -464 707 -508 784 -26 46 -249 418 -260 435 -9 14 -23 38 -73 123
-127 218 -282 467 -291 468 -6 1 -20 3 -31 4 -11 1 -58 5 -105 9 -47 4 -110 9
-141 12 l-56 6 -11 -44z"/>
</g>
</svg>
